{"title":"The Suspicions of Mr Whicher S01","uid":10372809,"size":2128769782,"categoryP":"video","categoryS":"tv_shows","magnet":"?xt=urn:btih:9fa3212b953be906600a8478a258d101ad4cb86a&amp;dn=The+Suspicions+of+Mr+Whicher+S01&amp;tr=udp%3A%2F%2Ftracker.openbittorrent.com%3A80&amp;tr=udp%3A%2F%2Fopen.demonii.com%3A1337&amp;tr=udp%3A%2F%2Ftracker.coppersurfer.tk%3A6969&amp;tr=udp%3A%2F%2Fexodus.desync.com%3A6969","seeders":9,"leechers":2,"uploader":"RedBaron58","files":2,"time":1402957378,"description":"The Suspicions of Mr Whicher S01 - Crime Drama S01 x264 mp4 \n &lt;a href=&quot;\nhttp://www.imdb.com/title/tt1724572/&quot; rel=&quot;nofollow&quot; target=&quot;_NEW&quot;&gt;\nhttp://www.imdb.com/title/tt1724572/&lt;/a&gt;     (E01) &lt;a href=&quot;\nhttp://www.imdb.com/title/tt2919798/&quot; rel=&quot;nofollow&quot; target=&quot;_NEW&quot;&gt;\nhttp://www.imdb.com/title/tt2919798/&lt;/a&gt;     (E02)\n\n\n\nThank you for your kind comments and thumbs ups on my other torrents, your feedback is welcome.\n\n\nAbout the Episodes:\nThe Murder at Road Hill House.\nBased on true events, a Scotland Yard Detective Inspector Whicher investigates the horrific murder \nof a three-year-old boy.\n\nThe Murder in Angel Lane.\nWhicher who has retired from the police,encounters Susan Spencer in a rough tavern,seeking her niece \nMary,who came to London to find Stephen Gann.\n\nI hope you enjoy.\n\nPS. Series 2 should broadcast latter this year\n\nTechnical: (Both episodes encoded to same settings)\n\nGeneral\nComplete name                            : G:The Suspicions of Mr Whicher S01The Suspicions of Mr Whicher S01E01 x264 RB58.mp4\nFormat                                   : MPEG-4\nFormat profile                           : Base Media\nCodec ID                                 : isom\nFile size                                : 1.01 GiB\nDuration                                 : 1h 34mn\nOverall bit rate                         : 1 537 Kbps\nWriting application                      : Lavf54.63.104\n\nVideo\nID                                       : 1\nFormat                                   : AVC\nFormat/Info                              : Advanced Video Codec\nFormat profile                           : &lt;a class=&quot;__cf_email__&quot; href=&quot;/cdn-cgi/l/email-protection&quot; data-cfemail=&quot;753d1c121d3539465b45&quot;&gt;[email&amp;#160;protected]&lt;/a&gt;&lt;script cf-hash='f9e31' type=&quot;text/javascript&quot;&gt;\n/* &lt;![CDATA[ */!function(){try{var t=&quot;currentScript&quot;in document?document.currentScript:function(){for(var t=document.getElementsByTagName(&quot;script&quot;),e=t.length;e--;)if(t[e].getAttribute(&quot;cf-hash&quot;))return t[e]}();if(t&amp;&amp;t.previousSibling){var e,r,n,i,c=t.previousSibling,a=c.getAttribute(&quot;data-cfemail&quot;);if(a){for(e=&quot;&quot;,r=parseInt(a.substr(0,2),16),n=2;a.length-n;n+=2)i=parseInt(a.substr(n,2),16)^r,e+=String.fromCharCode(i);e=document.createTextNode(e),c.parentNode.replaceChild(e,c)}}}catch(u){}}();/* ]]&gt; */&lt;/script&gt;\nFormat settings, CABAC                   : Yes\nFormat settings, ReFrames                : 4 frames\nCodec ID                                 : avc1\nCodec ID/Info                            : Advanced Video Coding\nDuration                                 : 1h 34mn\nBit rate                                 : 1 400 Kbps\nWidth                                    : 832 pixels\nHeight                                   : 468 pixels\nDisplay aspect ratio                     : 16:9\nFrame rate mode                          : Variable\nFrame rate                               : 25.000 fps\nMinimum frame rate                       : 3.571 fps\nMaximum frame rate                       : 25.000 fps\nColor space                              : YUV\nChroma subsampling                       : 4:2:0\nBit depth                                : 8 bits\nScan type                                : Progressive\nBits/(Pixel*Frame)                       : 0.144\nStream size                              : 945 MiB (91%)\nWriting library                          : x264 core 123 r2189 35cf912\nEncoding settings                        : cabac=1 / ref=3 / deblock=1:0:0 \n\nAudio\nID                                       : 2\nFormat                                   : AAC\nFormat/Info                              : Advanced Audio Codec\nFormat profile                           : LC\nCodec ID                                 : 40\nDuration                                 : 1h 34mn\nBit rate mode                            : Constant\nBit rate                                 : 128 Kbps\nChannel(s)                               : 2 channels\nChannel positions                        : Front: L R\nSampling rate                            : 48.0 KHz\nCompression mode                         : Lossy\nStream size                              : 86.4 MiB (8%)\nLanguage                                 : English","torrent":{"xt":"urn:btih:9fa3212b953be906600a8478a258d101ad4cb86a","amp;dn":"The+Suspicions+of+Mr+Whicher+S01","amp;tr":["udp%3A%2F%2Ftracker.openbittorrent.com%3A80","udp%3A%2F%2Fopen.demonii.com%3A1337","udp%3A%2F%2Ftracker.coppersurfer.tk%3A6969","udp%3A%2F%2Fexodus.desync.com%3A6969"],"infoHash":"9fa3212b953be906600a8478a258d101ad4cb86a","infoHashBuffer":{"type":"Buffer","data":[159,163,33,43,149,59,233,6,96,10,132,120,162,88,209,1,173,76,184,106]},"announce":[],"urlList":[]}}